<svg width="46" height="46" viewBox="0 0 46 46" fill="none" xmlns="http://www.w3.org/2000/svg">
<g clip-path="url(#clip0)">
<path d="M22.6889 0.0327454C10.263 0.0327454 0.189453 10.1065 0.189453 22.5325C0.189453 34.9582 10.263 45.0327 22.6889 45.0327C35.1149 45.0327 45.1892 34.9582 45.1892 22.5325C45.1892 10.1065 35.1149 0.0327454 22.6889 0.0327454ZM22.6894 7.93572L36.004 16.2383H9.3748L22.6894 7.93572ZM36.1699 29.4965H36.1685C36.1685 30.8282 35.0893 31.9073 33.7577 31.9073H11.6211C10.2894 31.9073 9.21024 30.8281 9.21024 29.4965V16.7666C9.21024 16.6258 9.22464 16.4888 9.24804 16.3543L21.9694 24.2868C21.985 24.2965 22.0016 24.3031 22.0177 24.3121C22.0345 24.3214 22.0516 24.3304 22.0687 24.339C22.1585 24.3853 22.2511 24.4227 22.3457 24.4471C22.3555 24.4498 22.3652 24.451 22.375 24.4533C22.4788 24.4777 22.5839 24.493 22.6889 24.493H22.6897C22.6904 24.493 22.6912 24.493 22.6912 24.493C22.7962 24.493 22.9013 24.4782 23.0051 24.4533C23.0149 24.4509 23.0246 24.4498 23.0344 24.4471C23.1289 24.4227 23.2211 24.3853 23.3114 24.339C23.3285 24.3304 23.3456 24.3214 23.3624 24.3121C23.3783 24.3031 23.3951 24.2965 23.4107 24.2868L36.1321 16.3543C36.1555 16.4888 36.1699 16.6255 36.1699 16.7666V29.4965Z" fill="#B38E40"/>
</g>
<defs>
<clipPath id="clip0">
<rect width="45.0007" height="45" fill="white" transform="translate(0.188477 0.0327454)"/>
</clipPath>
</defs>
</svg>
