<svg width="231" height="97" viewBox="0 0 231 97" fill="none" xmlns="http://www.w3.org/2000/svg">
<path fill-rule="evenodd" clip-rule="evenodd" d="M204.363 22.3255C200.805 5.19234 214.904 0.337026 215.258 0.518794C215.697 0.746 220.637 13.1213 204.363 22.3255ZM93.4615 53.0115L93.4833 53.0331L93.5061 53.0536C94.169 53.6508 94.9916 53.9149 95.8677 53.9149C96.7796 53.9149 97.6171 53.6096 98.274 52.9587C98.9149 52.3238 99.2388 51.5196 99.2388 50.6274V38.2156C99.2388 35.2606 98.5297 32.5408 97.0984 30.084C95.7062 27.6332 93.7649 25.7079 91.2931 24.3267C88.8438 22.9028 86.1118 22.1995 83.1281 22.1995C80.1423 22.1995 77.3941 22.9039 74.9122 24.3256C72.4739 25.7074 70.5359 27.631 69.1099 30.0749L69.1062 30.0813L69.1024 30.088C67.7075 32.5451 67.0175 35.2634 67.0175 38.2156C67.0175 41.1613 67.6867 43.875 69.0415 46.3298L69.0474 46.3404L69.0533 46.3508C70.4396 48.7544 72.3171 50.6743 74.6756 52.0919L74.6863 52.0981L74.6969 52.1044C77.1092 53.4922 79.7873 54.1789 82.7017 54.1789C85.1965 54.1789 87.5108 53.6639 89.6228 52.6177L89.6314 52.6135L89.6398 52.6092C90.6811 52.0741 91.6344 51.4419 92.4976 50.7131C92.5165 51.5833 92.8255 52.3814 93.4615 53.0115ZM91.3301 43.2392L91.3279 43.2431L91.3256 43.2471C90.513 44.7026 89.3978 45.8375 87.9644 46.671C86.5417 47.4985 84.9401 47.921 83.1281 47.921C81.3208 47.921 79.7001 47.5005 78.2387 46.671C76.807 45.8383 75.6726 44.7035 74.8242 43.247C74.0144 41.7617 73.5997 40.0934 73.5997 38.2156C73.5997 36.3341 74.0158 34.6855 74.8229 33.2391C75.6738 31.7424 76.8096 30.5912 78.2387 29.7601L78.2423 29.758L78.246 29.7557C79.7075 28.8931 81.3253 28.4574 83.1281 28.4574C84.9313 28.4574 86.5263 28.8929 87.9466 29.7495L87.9555 29.7549L87.9644 29.7601C89.3908 30.5897 90.5057 31.737 91.3201 33.2269L91.3279 33.241L91.336 33.2549C92.173 34.6987 92.6033 36.3416 92.6033 38.2156C92.6033 40.0893 92.173 41.7543 91.3301 43.2392ZM108.927 52.4027L108.937 52.4085L108.946 52.4142C110.656 53.4222 112.575 53.9149 114.671 53.9149H115.79C116.716 53.9149 117.572 53.6247 118.263 52.9973C118.951 52.3723 119.321 51.5567 119.321 50.6274C119.321 49.7592 119.055 48.944 118.452 48.2872C117.832 47.611 117.012 47.2872 116.11 47.2872H114.671C113.333 47.2872 112.318 46.8526 111.516 46.0086C110.702 45.1172 110.26 43.9627 110.26 42.4409V29.6194H114.991C115.809 29.6194 116.616 29.3841 117.237 28.7689C117.832 28.1794 118.149 27.4323 118.149 26.596C118.149 25.7728 117.864 25.0058 117.238 24.422C116.631 23.7851 115.829 23.5199 114.991 23.5199H110.26V16.6138C110.26 15.7103 109.952 14.8804 109.295 14.2295C108.638 13.5786 107.801 13.2735 106.889 13.2735C105.977 13.2735 105.139 13.5786 104.483 14.2295L104.461 14.251L104.44 14.2735C103.837 14.9304 103.571 15.7455 103.571 16.6138V23.5199H101.398C100.536 23.5199 99.7292 23.7985 99.0989 24.423C98.4938 25.0226 98.2406 25.7936 98.2406 26.596C98.2406 27.3912 98.5093 28.1226 99.0521 28.7201L99.0976 28.7701L99.1482 28.8153C99.7843 29.3827 100.574 29.6194 101.398 29.6194H103.571V42.4409C103.571 44.5614 104.02 46.5115 104.944 48.2629L104.952 48.2784L104.961 48.2938C105.921 49.9985 107.248 51.373 108.927 52.4027ZM141.406 30.689L141.416 30.6983L141.426 30.7072C142.861 32.0153 143.674 34.0025 143.674 36.8952V50.6274C143.674 51.5196 143.998 52.3238 144.639 52.9587C145.296 53.6096 146.133 53.9149 147.045 53.9149C147.945 53.9149 148.757 53.5938 149.398 52.9587C150.039 52.3238 150.363 51.5196 150.363 50.6274V36.8952C150.363 33.9099 149.76 31.2736 148.494 29.0377C147.239 26.7844 145.477 25.0542 143.223 23.8784C141.026 22.7142 138.558 22.1467 135.851 22.1467C133.727 22.1467 131.734 22.5494 129.887 23.3672C129.012 23.7543 128.197 24.2137 127.442 24.7452V13.4447C127.442 12.5501 127.14 11.7278 126.497 11.0798C125.863 10.4035 125.024 10.1045 124.124 10.1045C123.212 10.1045 122.375 10.4096 121.718 11.0605C121.061 11.7114 120.753 12.5412 120.753 13.4447V50.6274C120.753 51.5309 121.061 52.3608 121.718 53.0115L121.74 53.0331L121.762 53.0536C122.425 53.6508 123.248 53.9149 124.124 53.9149C124.997 53.9149 125.832 53.6513 126.477 53.0115C127.134 52.3608 127.442 51.5309 127.442 50.6274V34.9938C127.442 33.8066 127.773 32.7603 128.436 31.8175L128.441 31.8101L128.446 31.8028C129.129 30.8021 130.052 30.0137 131.247 29.4372C132.474 28.8616 133.86 28.563 135.425 28.563C137.998 28.563 139.948 29.303 141.406 30.689ZM173.897 51.948L174.327 53.1553C172.397 53.8302 170.51 54.1789 168.674 54.1789C165.635 54.1789 162.875 53.5186 160.423 52.1692L160.417 52.1654L160.41 52.1617C157.971 50.7806 156.046 48.8731 154.652 46.4564L154.646 46.446L154.64 46.4354C153.282 43.9758 152.616 41.2258 152.616 38.2156C152.616 35.1856 153.24 32.4415 154.522 30.016L154.524 30.0126L154.526 30.0093C155.839 27.5605 157.653 25.6391 159.965 24.28C162.314 22.8849 164.963 22.1995 167.874 22.1995C170.71 22.1995 173.272 22.8656 175.519 24.2292L175.519 24.2287C177.76 25.5538 179.491 27.4094 180.699 29.7658L180.699 29.7659C181.941 32.1167 182.546 34.7676 182.546 37.6875C182.546 38.5418 182.265 39.3414 181.633 39.9659L181.61 39.9898L181.585 40.0123C180.948 40.5797 180.158 40.8164 179.335 40.8164H159.309C159.745 42.7609 160.673 44.3442 162.08 45.6139C163.807 47.1709 165.971 47.9738 168.674 47.9738C169.805 47.9738 170.946 47.7873 172.1 47.4066C173.303 46.9858 174.19 46.4935 174.812 45.9612L174.839 45.9375L174.868 45.9154C175.516 45.4218 176.266 45.1217 177.096 45.1217C177.818 45.1217 178.469 45.3865 179.028 45.7892L178.268 46.8243L178.272 46.8203L179.028 45.7892L179.089 45.833L179.144 45.8837C179.819 46.5012 180.254 47.3008 180.254 48.2507C180.254 49.1225 179.861 49.8565 179.244 50.4128L179.228 50.4275L179.21 50.4418L178.375 49.4655L178.375 49.4658L179.21 50.4418C177.899 51.5448 176.266 52.4395 174.348 53.1476L174.337 53.1514L174.327 53.1553L173.911 51.986L173.897 51.948ZM174.857 25.3284L174.885 25.2815L174.856 25.328L174.857 25.3284ZM162.043 30.5395C163.553 29.1325 165.464 28.4046 167.874 28.4046C170.244 28.4046 172.09 29.129 173.526 30.5214C174.692 31.6526 175.493 33.0873 175.899 34.8754H159.485C159.966 33.1036 160.826 31.6726 162.043 30.5395ZM202.754 22.844L202.754 22.8444C203.9 23.3491 204.84 24.2524 204.84 25.6453C204.84 25.8893 204.824 26.2077 204.726 26.5085C204.529 27.174 204.148 27.8406 203.447 28.234C202.878 28.5721 202.207 28.6687 201.575 28.6687C201.191 28.6687 200.587 28.628 199.806 28.5578L199.924 27.2826L199.923 27.2825V27.2826L199.806 28.5578L199.784 28.5558L199.763 28.5531C199.561 28.5282 199.201 28.5102 198.643 28.5102C196.223 28.5102 194.353 29.1427 192.925 30.317L192.925 30.3175C191.556 31.4726 190.874 32.9412 190.874 34.8354V50.6274C190.874 51.5036 190.622 52.3584 189.963 53.0115C189.304 53.6649 188.441 53.9149 187.556 53.9149C186.673 53.9149 185.81 53.6649 185.151 53.0115C184.491 52.3584 184.239 51.5036 184.239 50.6274V25.751C184.239 24.8749 184.491 24.0199 185.151 23.3667C185.81 22.7134 186.673 22.4636 187.556 22.4636C188.441 22.4636 189.304 22.7134 189.963 23.3667C190.404 23.8038 190.663 24.3314 190.786 24.8951C191.444 24.36 192.161 23.8951 192.938 23.5016C194.725 22.5969 196.65 22.1467 198.697 22.1467C200.278 22.1467 201.661 22.3478 202.754 22.844ZM202.801 27.1241L202.809 27.1364L202.802 27.1237L202.801 27.1241ZM206.272 24.6686C217.274 10.9889 230.067 18.6125 230.153 18.9971C230.258 19.4779 223.827 31.1608 206.272 24.6686ZM54.952 36.4656C54.952 42.8298 49.7452 47.9891 43.322 47.9891C36.8991 47.9891 31.6921 42.8298 31.6921 36.4656C31.6921 30.1012 36.8991 24.942 43.322 24.942C49.7452 24.942 54.952 30.1012 54.952 36.4656ZM55.4283 49.786C52.2223 52.6486 47.9776 54.3911 43.322 54.3911C36.0827 54.3911 29.8365 50.1778 26.9448 44.091C25.7996 46.4062 24.1997 48.7295 21.5329 50.8745C17.7847 53.8893 13.1383 54.0775 9.68744 53.5955C7.9149 53.3479 6.30464 52.9053 5.02926 52.4478C4.02047 52.0857 2.99437 51.6336 2.25428 51.1482C1.22206 50.6138 0.517517 49.543 0.517517 48.3092C0.517517 46.5413 1.96388 45.1082 3.74806 45.1082C4.55776 45.1082 5.29789 45.4034 5.86483 45.891L5.88934 45.8597C5.86695 45.8425 5.8789 45.8486 5.92768 45.8739C6.06253 45.9437 6.47888 46.159 7.2294 46.4283C8.1422 46.7559 9.3166 47.0784 10.5895 47.2562C13.2296 47.625 15.7173 47.3063 17.461 45.904C20.1906 43.7083 21.269 41.3272 22.457 38.1067C22.5709 37.7978 22.6859 37.4808 22.8036 37.156C23.9007 34.1295 25.2393 30.4371 28.2432 26.5579C31.4837 21.7253 37.0275 18.54 43.322 18.54C49.9747 18.54 55.7885 22.0979 58.9313 27.3983C59.91 25.6659 61.2764 24.1259 63.2215 23.1994C63.6763 22.9827 64.186 22.8614 64.7243 22.8614C66.6423 22.8614 68.1972 24.402 68.1972 26.3024C68.1972 27.6912 67.3668 28.8879 66.1711 29.4316C65.7222 29.6716 65.0371 30.3342 64.3716 32.1234C63.6894 33.9566 63.2149 36.4808 62.9017 39.6411C62.4962 43.7299 62.3942 48.3979 62.3026 53.3721C65.1748 52.0264 67.5005 50.688 69.356 49.4649L73.9824 54.671C71.0809 56.6606 67.2054 58.8696 62.138 60.9773C62.128 61.3161 62.1175 61.6559 62.1062 61.9961C61.8461 69.9015 61.2297 78.135 58.9414 84.4447C57.7829 87.6386 56.1083 90.5982 53.5985 92.7675C51.0128 95.0025 47.7669 96.2 43.9181 96.1795C40.7274 96.1624 37.3788 94.3772 34.9152 91.9547C32.3625 89.4443 30.2849 85.8006 30.1431 81.4356C29.861 72.7566 37.0256 63.7538 55.2996 56.2827C55.3115 55.6632 55.323 55.0425 55.3345 54.422C55.3631 52.8692 55.3916 51.3175 55.4283 49.786ZM55.0856 63.8679C39.9573 70.6499 36.9593 77.3422 37.0852 81.2141C37.159 83.4852 38.2496 85.5375 39.8079 87.0698C41.4551 88.6895 43.1599 89.2932 43.9555 89.2974C46.2169 89.3095 47.7983 88.6484 49.0327 87.5813C50.3431 86.4486 51.4816 84.6633 52.4049 82.1172C54.114 77.4052 54.7825 70.9856 55.0856 63.8679ZM206.646 27.7319C224.291 27.2154 226.683 41.8161 226.442 42.1288C226.14 42.5195 212.985 45.2033 206.646 27.7319Z" fill="white"/>
</svg>
