<svg width="47" height="46" viewBox="0 0 47 46" fill="none" xmlns="http://www.w3.org/2000/svg">
<g clip-path="url(#clip0)">
<path d="M42.5371 12.1467C40.5252 8.69934 37.796 5.97009 34.349 3.95829C30.9015 1.9464 27.1378 0.940704 23.0553 0.940704C18.9733 0.940704 15.2084 1.9467 11.7616 3.95829C8.31429 5.96998 5.58525 8.69934 3.57325 12.1467C1.56156 15.5939 0.555664 19.3583 0.555664 23.4397C0.555664 28.3425 1.98606 32.7512 4.84758 36.6669C7.70879 40.583 11.405 43.2927 15.936 44.7965C16.4635 44.8944 16.8539 44.8255 17.1078 44.5917C17.3617 44.3575 17.4885 44.0643 17.4885 43.7131C17.4885 43.6545 17.4835 43.1274 17.4738 42.1312C17.4637 41.1349 17.459 40.2658 17.459 39.5242L16.7851 39.6408C16.3555 39.7195 15.8135 39.7529 15.1592 39.7434C14.5051 39.7343 13.8262 39.6657 13.1232 39.5383C12.4199 39.412 11.7657 39.119 11.1602 38.66C10.555 38.2011 10.1254 37.6003 9.87142 36.8586L9.57846 36.1844C9.38319 35.7356 9.07577 35.237 8.65578 34.6905C8.2358 34.1435 7.81109 33.7727 7.38146 33.5774L7.17634 33.4306C7.03966 33.333 6.91283 33.2153 6.79555 33.0787C6.67837 32.9421 6.59063 32.8055 6.53204 32.6686C6.47335 32.5316 6.52199 32.4192 6.67847 32.3311C6.83495 32.243 7.11775 32.2002 7.52809 32.2002L8.11379 32.2877C8.50443 32.366 8.98763 32.5998 9.564 32.9907C10.1401 33.3812 10.6136 33.8889 10.9847 34.5136C11.4342 35.3146 11.9757 35.9249 12.6107 36.3449C13.2453 36.7649 13.8851 36.9746 14.5294 36.9746C15.1738 36.9746 15.7304 36.9257 16.1993 36.8285C16.6678 36.7309 17.1072 36.584 17.5176 36.3888C17.6934 35.0797 18.1719 34.074 18.9529 33.3711C17.8398 33.2541 16.839 33.0779 15.9501 32.8436C15.0617 32.6091 14.1436 32.2284 13.1965 31.7005C12.2489 31.1734 11.4628 30.5189 10.838 29.738C10.2131 28.9567 9.70026 27.931 9.30018 26.6618C8.8999 25.3921 8.6997 23.9274 8.6997 22.2674C8.6997 19.9038 9.47134 17.8924 11.0143 16.2321C10.2915 14.4551 10.3597 12.463 11.2192 10.2561C11.7856 10.0801 12.6256 10.2121 13.7387 10.6514C14.8521 11.0909 15.6672 11.4674 16.185 11.7795C16.7028 12.0916 17.1176 12.356 17.4302 12.5704C19.2469 12.0628 21.1217 11.809 23.0551 11.809C24.9885 11.809 26.8637 12.0628 28.6805 12.5704L29.7938 11.8677C30.555 11.3987 31.454 10.969 32.4885 10.5784C33.5237 10.1879 34.3152 10.0804 34.8624 10.2564C35.7409 12.4634 35.8192 14.4554 35.0962 16.2324C36.6391 17.8927 37.411 19.9046 37.411 22.2677C37.411 23.9278 37.2101 25.397 36.8104 26.6765C36.4102 27.9562 35.893 28.9808 35.2584 29.7527C34.6232 30.5244 33.832 31.1738 32.8849 31.7009C31.9376 32.2283 31.0193 32.609 30.1309 32.8435C29.242 33.0781 28.2413 33.2544 27.1281 33.3716C28.1434 34.2501 28.6511 35.6369 28.6511 37.5313V43.7123C28.6511 44.0634 28.7732 44.3566 29.0176 44.5909C29.2617 44.8247 29.6472 44.8936 30.1747 44.7956C34.7063 43.292 38.4025 40.5822 41.2636 36.6661C44.1244 32.7504 45.5554 28.3417 45.5554 23.4389C45.5543 19.358 44.5479 15.5939 42.5371 12.1467Z" fill="#B38E40"/>
</g>
<defs>
<clipPath id="clip0">
<rect width="46" height="45" fill="white" transform="translate(0.188477 0.390228)"/>
</clipPath>
</defs>
</svg>
