<svg width="46" height="46" viewBox="0 0 46 46" fill="none" xmlns="http://www.w3.org/2000/svg">
<path fill-rule="evenodd" clip-rule="evenodd" d="M22.7041 45.3604C35.1305 45.3604 45.2041 35.2868 45.2041 22.8604C45.2041 10.434 35.1305 0.360413 22.7041 0.360413C10.2777 0.360413 0.204102 10.434 0.204102 22.8604C0.204102 35.2868 10.2777 45.3604 22.7041 45.3604ZM16.9309 9.36041H29.4768C33.7377 9.36041 37.2041 12.8268 37.2039 17.0874V29.6333C37.2039 33.8938 33.7377 37.3602 29.4768 37.3602H16.9309C12.6703 37.3602 9.2041 33.894 9.2041 29.6333V17.0874C9.2041 12.8268 12.6703 9.36041 16.9309 9.36041ZM29.477 34.876C32.3679 34.876 34.7198 32.5242 34.7198 29.6333H34.7197V17.0874C34.7197 14.1966 32.3677 11.8447 29.4768 11.8447H16.9309C14.0402 11.8447 11.6884 14.1966 11.6884 17.0874V29.6333C11.6884 32.5242 14.0402 34.8761 16.9309 34.876H29.477ZM23.2041 16.1458C19.2258 16.1458 15.9893 19.3823 15.9893 23.3607C15.9893 27.3388 19.2258 30.5752 23.2041 30.5752C27.1824 30.5752 30.4189 27.3388 30.4189 23.3607C30.4189 19.3823 27.1824 16.1458 23.2041 16.1458ZM23.2041 28.0907C20.5958 28.0907 18.4735 25.9688 18.4735 23.3605C18.4735 20.752 20.5956 18.6299 23.2041 18.6299C25.8126 18.6299 27.9347 20.752 27.9347 23.3605C27.9347 25.9688 25.8124 28.0907 23.2041 28.0907ZM29.4349 14.5726C29.7729 14.2331 30.2431 14.0393 30.7217 14.0393C31.202 14.0393 31.6724 14.2331 32.0102 14.5726C32.3497 14.9105 32.5435 15.3808 32.5435 15.8611C32.5435 16.3397 32.3497 16.8101 32.0102 17.1496C31.6707 17.4875 31.202 17.6829 30.7217 17.6829C30.2431 17.6829 29.7727 17.4875 29.4349 17.1496C29.0953 16.8101 28.8999 16.3399 28.8999 15.8611C28.8999 15.3808 29.0952 14.9105 29.4349 14.5726Z" fill="#B38E40"/>
</svg>
