<svg width="51" height="51" viewBox="0 0 51 51" fill="none" xmlns="http://www.w3.org/2000/svg">
<path fill-rule="evenodd" clip-rule="evenodd" d="M25.9756 50.2134C39.7829 50.2134 50.9756 39.0207 50.9756 25.2134C50.9756 11.4061 39.7829 0.213379 25.9756 0.213379C12.1683 0.213379 0.975586 11.4061 0.975586 25.2134C0.975586 39.0207 12.1683 50.2134 25.9756 50.2134ZM34.7757 17.6745C35.4235 17.6745 35.9485 17.1493 35.9485 16.5014C35.9485 15.8536 35.4235 15.3286 34.7757 15.3286C34.1278 15.3286 33.6025 15.8536 33.6025 16.5014C33.6025 17.1493 34.1278 17.6745 34.7757 17.6745ZM26.564 32.9531C22.0204 32.9531 18.3242 29.2569 18.3242 24.7134C18.3242 20.1698 22.0204 16.4736 26.564 16.4736C31.1075 16.4736 34.8037 20.1698 34.8037 24.7134C34.8037 29.2569 31.1075 32.9531 26.564 32.9531ZM26.564 19.1104C23.4744 19.1104 20.9609 21.6238 20.9609 24.7134C20.9609 27.8029 23.4744 30.3164 26.564 30.3164C29.6535 30.3164 32.167 27.8029 32.167 24.7134C32.167 21.6238 29.6535 19.1104 26.564 19.1104ZM38.0879 29.8165V29.8698L38.0936 29.9229C38.2106 31.0175 38.0655 32.6448 37.3117 33.9565C36.6015 35.1922 35.308 36.2378 32.8556 36.2378H20.2714C17.387 36.2378 15.0391 33.8898 15.0391 31.0055V18.4213C15.0391 15.5369 17.387 13.189 20.2714 13.189H32.8556C35.7399 13.189 38.0879 15.5369 38.0879 18.4213V29.8165ZM20.2714 39.8745H32.8556C35.8119 40.3203 41.7246 38.9327 41.7246 29.8165V18.4213C41.7246 13.531 37.7462 9.55225 32.8556 9.55225H20.2714C15.3811 9.55225 11.4023 13.531 11.4023 18.4213V31.0055C11.4023 35.8957 15.3811 39.8745 20.2714 39.8745Z" fill="#12634F"/>
</svg>
