<svg width="250" height="123" viewBox="0 0 250 123" fill="none" xmlns="http://www.w3.org/2000/svg">
<path d="M23.7775 122.5C19.4835 122.5 15.5898 121.429 12.0963 119.285C8.6029 117.142 5.83725 114.021 3.79941 109.921C1.83434 105.727 0.851807 100.696 0.851807 94.8252V79.7996V79.1007H19.3015V93.4274C19.3015 95.5706 19.6291 97.2944 20.2841 98.599C21.0119 99.8103 22.1036 100.416 23.5592 100.416C24.942 100.416 25.9609 99.857 26.616 98.7388C27.3438 97.5274 27.7077 95.8501 27.7077 93.707V1.31716H46.5941V91.3308C46.5941 97.5739 45.6116 103.072 43.6465 107.824C41.7543 112.483 39.0614 116.117 35.5679 118.726C32.1473 121.242 28.2172 122.5 23.7775 122.5ZM76.1597 122.5C68.5905 122.5 62.841 119.565 58.9108 113.694C54.9807 107.731 53.0156 99.391 53.0156 88.6752V31.5081C53.0156 21.1649 54.9807 13.3842 58.9108 8.16602C62.841 2.85466 68.5905 0.198975 76.1597 0.198975C83.7288 0.198975 89.4785 2.85466 93.4086 8.16602C97.3388 13.3842 99.3038 21.1649 99.3038 31.5081V88.6752C99.3038 99.4842 97.3388 107.824 93.4086 113.694C89.4785 119.565 83.7288 122.5 76.1597 122.5ZM76.1597 100.416C77.8336 100.416 78.9617 99.4842 79.544 97.6206C80.1262 95.7569 80.4174 93.1479 80.4174 89.7933V31.0888C80.4174 28.4797 80.1262 26.3831 79.544 24.799C79.0345 23.1218 77.9428 22.2831 76.2689 22.2831C73.1393 22.2831 71.5746 25.3114 71.5746 31.3683V89.9331C71.5746 93.3807 71.9021 95.9899 72.5571 97.7604C73.2121 99.5307 74.413 100.416 76.1597 100.416ZM106.872 121.382V1.31716H125.431V49.399L134.165 1.31716H153.051L142.571 56.2479L155.235 121.382H135.802L125.54 63.2365V121.382H106.872ZM158.366 121.382V1.31716H195.92V24.5195H177.47V47.8615H195.156V70.5047H177.47V98.0399H197.121V121.382H158.366ZM203.356 1.31716H232.177C236.762 1.31716 240.291 2.66829 242.766 5.37057C245.313 7.97965 247.024 11.7069 247.897 16.5524C248.771 21.3047 249.207 27.408 249.207 34.8627C249.207 41.6648 248.516 46.9762 247.133 50.7968C245.75 54.6172 243.348 57.2728 239.928 58.7638C242.766 59.5092 244.805 61.3263 246.041 64.2149C247.351 67.1035 248.006 71.0171 248.006 75.9558L247.788 121.382H229.448V74.4184C229.448 71.0638 228.938 68.9205 227.919 67.9888C226.901 67.0569 225.045 66.5911 222.351 66.5911V121.382H203.356V1.31716ZM226.937 45.7649C229.557 45.7649 230.867 42.1308 230.867 34.8627C230.867 31.6944 230.758 29.3183 230.539 27.7343C230.321 26.1501 229.92 25.0786 229.338 24.5195C228.756 23.8672 227.919 23.5411 226.827 23.5411H222.461V45.7649H226.937Z" fill="white"/>
</svg>
