<svg width="47" height="46" viewBox="0 0 47 46" fill="none" xmlns="http://www.w3.org/2000/svg">
<g clip-path="url(#clip0)">
<path d="M22.877 0.0327454C10.4524 0.0327454 0.376953 10.1082 0.376953 22.5327C0.376953 34.9573 10.4524 45.0327 22.877 45.0327C35.3015 45.0327 45.377 34.9573 45.377 22.5327C45.377 10.1082 35.3015 0.0327454 22.877 0.0327454ZM16.3387 34.0464H10.8589V17.5604H16.3387V34.0464ZM13.599 15.3092H13.5633C11.7245 15.3092 10.5352 14.0434 10.5352 12.4614C10.5352 10.8436 11.7608 9.61282 13.6354 9.61282C15.5099 9.61282 16.6635 10.8436 16.6992 12.4614C16.6992 14.0434 15.5099 15.3092 13.599 15.3092ZM36.0976 34.0464H30.6185V25.2268C30.6185 23.0103 29.8251 21.4987 27.8424 21.4987C26.3287 21.4987 25.4272 22.5183 25.031 23.5026C24.8861 23.8549 24.8507 24.3472 24.8507 24.8399V34.0464H19.3713C19.3713 34.0464 19.443 19.1071 19.3713 17.5604H24.8507V19.8947C25.5789 18.7713 26.8818 17.1735 29.7891 17.1735C33.3943 17.1735 36.0976 19.5297 36.0976 24.5934V34.0464Z" fill="#B38E40"/>
</g>
<defs>
<clipPath id="clip0">
<rect width="46" height="45" fill="white" transform="translate(0.188477 0.0327454)"/>
</clipPath>
</defs>
</svg>
