<svg width="46" height="46" viewBox="0 0 46 46" fill="none" xmlns="http://www.w3.org/2000/svg">
<path fill-rule="evenodd" clip-rule="evenodd" d="M45.1074 22.9328C45.1074 35.3592 35.0338 45.4328 22.6074 45.4328C10.181 45.4328 0.107422 35.3592 0.107422 22.9328C0.107422 10.5063 10.181 0.43277 22.6074 0.43277C35.0338 0.43277 45.1074 10.5063 45.1074 22.9328ZM13.3152 20.9281C13.1109 20.6708 12.8573 20.5037 12.5544 20.4268C12.3573 20.3756 11.9342 20.35 11.2852 20.35H9.57245V25.4709H10.6397V23.5392H11.3357C11.8189 23.5392 12.1879 23.5147 12.4427 23.4658C12.6302 23.4262 12.8147 23.3453 12.9962 23.223C13.1777 23.1008 13.3273 22.9325 13.4451 22.7183C13.5629 22.5041 13.6218 22.2397 13.6218 21.9254C13.6217 21.5178 13.5196 21.1854 13.3152 20.9281ZM12.4012 22.3376C12.3207 22.4517 12.2095 22.5355 12.0676 22.5891C11.9258 22.6427 11.6446 22.6694 11.2239 22.6694H10.6397V21.2163H11.1554C11.54 21.2163 11.796 21.2279 11.9234 21.2513C12.0964 21.2815 12.2395 21.3572 12.3524 21.4783C12.4654 21.5994 12.5219 21.7531 12.5219 21.9394C12.522 22.0907 12.4817 22.2234 12.4012 22.3376ZM18.2479 20.9194C18.4691 21.1453 18.6374 21.4218 18.7527 21.749C18.8681 22.0762 18.9258 22.4796 18.9258 22.9594C18.9258 23.3808 18.8717 23.7441 18.7635 24.0492C18.6313 24.4218 18.4426 24.7233 18.1974 24.9539C18.0124 25.1285 17.7624 25.2648 17.4474 25.3625C17.2119 25.4348 16.897 25.4709 16.5027 25.4709H14.4943V20.35H16.4451C16.8849 20.35 17.2203 20.3826 17.451 20.4478C17.7611 20.5363 18.0268 20.6935 18.2479 20.9194ZM17.4348 24.3461C17.549 24.246 17.6421 24.0813 17.7142 23.8519C17.7864 23.6224 17.8224 23.3098 17.8224 22.914C17.8224 22.5181 17.7864 22.2142 17.7142 22.0023C17.6421 21.7904 17.5412 21.6251 17.4114 21.5063C17.2816 21.3875 17.1169 21.3071 16.9174 21.2652C16.7684 21.2326 16.4762 21.2163 16.0412 21.2163H15.5616V24.6081H16.3585C16.6566 24.6081 16.8717 24.5918 17.0039 24.5592C17.177 24.5173 17.3206 24.4463 17.4348 24.3461ZM23.4619 21.2163V20.35H19.838V25.4709H20.9054V23.2947H23.1121V22.4284H20.9054V21.2163H23.4619ZM27.7874 5.98056L35.9399 14.187C36.0502 14.2981 36.1119 14.4463 36.1119 14.6004V34.4153C36.1119 35.729 35.0056 36.7978 33.6458 36.7978H15.1934C13.8336 36.7978 12.7273 35.7284 12.7273 34.4139V29.0478H7.80307C6.78571 29.0478 5.95801 28.2462 5.95801 27.261V18.3155C5.95801 17.3302 6.78571 16.5286 7.80307 16.5286H12.7273V8.18591C12.7273 6.86914 13.8336 5.79782 15.1934 5.79782H27.344C27.5113 5.79782 27.6714 5.86383 27.7874 5.98056ZM34.1889 14.144L27.4965 7.40723V14.144H34.1889ZM7.18881 27.261C7.18881 27.5888 7.46432 27.8555 7.80307 27.8555H24.4207C24.7594 27.8555 25.0349 27.5888 25.0349 27.261V18.3155C25.0349 17.9877 24.7594 17.7209 24.4207 17.7209H7.80307C7.46439 17.7209 7.18881 17.9877 7.18881 18.3155V27.261Z" fill="#B38E40"/>
</svg>
