<svg width="46" height="46" viewBox="0 0 46 46" fill="none" xmlns="http://www.w3.org/2000/svg">
<path fill-rule="evenodd" clip-rule="evenodd" d="M22.7041 45.0327C35.1305 45.0327 45.2041 34.9592 45.2041 22.5327C45.2041 10.1063 35.1305 0.0327454 22.7041 0.0327454C10.2777 0.0327454 0.204102 10.1063 0.204102 22.5327C0.204102 34.9592 10.2777 45.0327 22.7041 45.0327ZM33.7154 34.6426C33.7153 35.6102 32.9281 36.3969 31.9603 36.3969H13.2484C12.2809 36.3969 11.4941 35.6101 11.4941 34.6424V11.2518C11.4941 10.2843 12.2809 9.4975 13.2484 9.4975H31.9603C32.9273 9.4975 33.7141 10.2843 33.7141 11.2518V34.6426H33.7154ZM16.4391 21.1111H28.7705C29.0674 21.1111 29.3072 21.3519 29.3071 21.6485C29.3071 21.9453 29.0674 22.186 28.7703 22.186H16.4391C16.1423 22.186 15.9026 21.9452 15.9026 21.6485C15.9026 21.3517 16.1423 21.1111 16.4391 21.1111ZM28.7705 23.56H16.4391C16.1423 23.56 15.9026 23.8011 15.9026 24.0979C15.9026 24.3947 16.1423 24.6347 16.4391 24.6347H28.7703C29.0674 24.6347 29.3071 24.3947 29.3071 24.0979C29.3064 23.7995 29.0674 23.56 28.7705 23.56ZM16.4391 26.0081H28.7705C29.0674 26.0081 29.3072 26.2492 29.3071 26.5457C29.3071 26.8425 29.0674 27.0828 28.7703 27.0828H16.4391C16.1423 27.0828 15.9026 26.8425 15.9026 26.5457C15.9026 26.2492 16.1423 26.0081 16.4391 26.0081ZM28.7709 28.4569H22.6048C22.3085 28.4569 22.0677 28.697 22.0677 28.9938C22.0677 29.2906 22.3085 29.5317 22.6048 29.5317H28.7708C29.0679 29.5317 29.3068 29.2906 29.3068 28.9938C29.3068 28.697 29.0679 28.4569 28.7709 28.4569ZM24.4538 33.2929H28.7705C29.0674 33.2929 29.3065 33.5332 29.3065 33.83C29.3065 34.1265 29.0676 34.3668 28.7705 34.3668H24.4538C24.1561 34.3668 23.9171 34.1265 23.9171 33.83C23.9171 33.5332 24.1561 33.2929 24.4538 33.2929ZM23.2037 18.7502C23.2037 17.7338 22.0334 16.3628 20.4538 15.9622C21.1137 15.5184 21.5685 14.6419 21.5685 13.8526C21.5685 12.7393 20.667 11.8359 19.5527 11.8359C18.4398 11.8359 17.537 12.7393 17.537 13.8526C17.537 14.6411 17.9918 15.5176 18.6503 15.9622C17.0729 16.3626 15.9018 17.7346 15.9018 18.7502C15.9031 19.9512 23.2037 19.9512 23.2037 18.7502Z" fill="#B38E40"/>
</svg>
