<svg width="1212" height="336" viewBox="0 0 1212 336" fill="none" xmlns="http://www.w3.org/2000/svg">
<path fill-rule="evenodd" clip-rule="evenodd" d="M940.598 77.209C941.788 39.5472 927.389 -15.3326 859.579 5.51342C848.586 10.3424 819.238 19.1592 789.794 15.7944C768.006 13.3046 772.946 42.3266 777.287 67.8313C777.882 71.3254 778.465 74.7534 778.967 78.0254C775.264 84.8143 797.255 92.8898 804.428 94.7713C811.04 96.5056 816.141 99.5271 821.68 102.807C832.041 108.943 843.932 115.985 870.095 117.203C873.084 117.343 875.978 117.355 878.778 117.254C884.342 122.369 889.806 129.228 894.905 136.716C894.515 136.873 894.15 137.027 893.812 137.175C884.415 141.273 866.461 152.53 869.822 164.767C871.392 170.484 873.563 172.3 875.7 172.17C869.517 179.253 865.106 187.745 868.626 195.134C874.695 207.872 880.306 200.441 882.353 195.134C884.28 188.098 893.335 174.471 914.143 176.248C915.164 176.335 916.159 176.361 917.127 176.328C921.413 185.307 923.956 191.475 923.956 191.475C928.912 209.808 939.958 222.153 950.776 229.872C949.066 243.746 950.522 265.029 955.77 276.153C961.162 287.582 956.116 292.428 952.92 293.422C925.151 301.401 927.333 315.739 928.899 320.03C929.836 322.596 941.968 322.295 954.276 321.402C954.034 324.019 954.549 326.186 955.019 327.474C956.426 331.329 983.297 329.182 998.947 327.932L998.962 327.931C1001.18 327.754 1003.17 327.595 1004.83 327.474C1012.92 326.882 1011.23 315.382 1009.81 305.732C1008.88 299.421 1008.07 293.901 1010.18 292.74C1014.47 290.392 1024.47 263.062 1028.93 249.69C1033.64 222.295 1049.46 209.902 1056.78 207.13C1158.32 212.217 1201.92 150.219 1211.03 118.584C1166.04 167.015 1108.19 160.655 1087.31 151.849C1066.42 143.044 1038.25 132.347 1028.93 129.835C1025.32 128.864 1020.14 128.718 1013.88 128.541C1002.41 128.218 987.31 127.792 971.622 122.008C951.866 114.724 944.067 88.6909 941.36 79.6539L941.359 79.6528L941.356 79.6414C941.035 78.5714 940.786 77.7407 940.598 77.209ZM899.187 154.675C891.16 156.055 885.876 160.847 883.201 164.824C885.477 162.889 887.686 161.232 889.578 159.955C891.779 158.466 895.179 156.493 899.187 154.675ZM983.548 282.133L983.404 281.833C982.365 283.721 981.438 285.006 980.689 285.443C978.699 286.601 979.526 291.993 980.472 298.158L980.472 298.159L980.473 298.16L980.597 298.97C980.627 299.167 980.657 299.366 980.687 299.565C980.736 299.887 980.785 300.211 980.833 300.536C984.229 299.487 989.453 294.576 983.941 282.956C983.811 282.683 983.68 282.408 983.548 282.133ZM609.981 238.682V269.219C609.981 276.453 610.741 281.915 612.02 285.826C613.417 289.341 615.213 291.415 616.995 292.644C619.103 293.71 622.187 294.483 626.792 294.483C631.989 294.483 634.131 293.497 634.955 292.879C636.671 291.576 638.151 289.56 638.927 286.234L638.958 286.101L638.995 285.969C640.147 281.827 640.778 276.818 640.778 270.867V259.333V251.644H650.192H692.15H701.563V259.333V266.583C701.563 286.703 696.335 303.56 684.789 316.303C672.385 329.995 651.949 335.895 626.388 335.895C607.081 335.895 590.766 332.904 578.614 325.93L578.545 325.89L578.477 325.849C566.592 318.765 558.537 308.66 554.016 296.103L553.985 296.019L553.957 295.933C549.911 283.658 547.985 268.993 547.985 252.083V208.585C547.985 191.233 550.045 176.382 554.419 164.235C558.944 151.668 567.029 141.62 579.017 134.739L579.065 134.712L579.114 134.685C591.444 127.794 607.526 124.774 626.388 124.774C646.968 124.774 664.089 128.179 675.735 136.547C687.114 144.533 694.109 155.805 697.36 169.561L697.359 169.561C700.465 182.492 701.967 197.838 701.967 215.505V230.993V238.682H692.553H609.981ZM640.778 204.191V194.745C640.778 187.079 640.253 180.945 639.292 176.237L639.287 176.212L639.282 176.187C638.4 171.684 636.734 169.485 635.334 168.43L635.057 168.221L634.802 167.995C634.113 167.385 631.993 166.185 625.985 166.185C620.5 166.185 617.628 167.191 616.113 168.193C614.859 169.205 613.03 171.732 611.862 177.268L611.857 177.29L611.852 177.313C610.651 182.805 609.981 190.849 609.981 201.665V204.191H640.778ZM352.276 123.649H289.53L246.906 251.243L202.383 123.649H142.625L216.012 326.897H274.151L352.276 123.649ZM70.5148 103.366V329.143H128.493V103.366H196.733V64.1433H0.222534V103.366H70.5148ZM424.398 208.286V323.166V330.682H415.293H371.199H362.094V323.166V62.2707V54.7552H371.199H434.804C456.584 54.7552 475.278 57.1834 490.515 62.3924C506.144 67.518 517.983 76.0838 525.546 88.0182C533.274 99.5916 536.779 114.269 536.779 131.521C536.779 142.14 535.411 152.011 532.591 161.087L532.584 161.11L532.576 161.133C529.688 170.197 524.986 178.175 518.343 184.904L518.29 184.958L518.235 185.012C513.129 189.993 506.881 193.912 499.633 196.815L542.287 321.118L545.569 330.682H533.527H490.994H484.081L482.224 325.186L442.719 208.286H424.398ZM424.398 167.166H432.072C443.911 167.166 452.788 165.931 459.127 163.838C464.828 161.955 468.828 158.874 471.478 154.343C474.268 149.574 476.036 142.172 476.036 131.521C476.036 116.839 472.697 108.1 468.019 103.497L467.974 103.452L467.929 103.406C463.921 99.3344 454.297 95.8758 434.804 95.8758H424.398V167.166ZM783.777 173.069L803.51 129.178L805.65 124.419H811.293H849.14H862.265L856.78 135.289L810.819 226.384L857.5 318.793L862.992 329.667H849.861H813.095H807.727L805.466 325.229L780.888 276.973L759.993 324.834L757.884 329.667H752.179H715.774H703.03L708.041 318.986L753.426 222.24L709.225 135.31L703.687 124.419H716.855H753.621H758.988L761.249 128.856L783.777 173.069Z" fill="white"/>
</svg>
