<svg width="1212" height="336" viewBox="0 0 1212 336" fill="none" xmlns="http://www.w3.org/2000/svg">
<path fill-rule="evenodd" clip-rule="evenodd" d="M941.282 77.0541C942.472 39.3923 928.073 -15.4875 860.264 5.35848C849.27 10.1875 819.922 19.0042 790.479 15.6395C768.691 13.1497 773.63 42.1717 777.972 67.6764C778.566 71.1704 779.15 74.5985 779.652 77.8704C775.948 84.6593 797.94 92.7349 805.112 94.6163C811.724 96.3507 816.826 99.3722 822.365 102.653C832.726 108.789 844.616 115.83 870.779 117.048C873.768 117.188 876.662 117.2 879.462 117.099C885.027 122.214 890.491 129.073 895.59 136.561C895.2 136.718 894.834 136.872 894.497 137.02C885.099 141.118 867.145 152.376 870.506 164.612C872.077 170.329 874.248 172.145 876.384 172.015C870.202 179.098 865.79 187.591 869.31 194.979C875.379 207.717 880.991 200.286 883.038 194.979C884.964 187.943 894.02 174.316 914.828 176.093C915.849 176.18 916.843 176.206 917.812 176.173C922.098 185.152 924.64 191.32 924.64 191.32C929.596 209.653 940.642 221.998 951.46 229.717C949.75 243.591 951.206 264.874 956.454 275.998C961.846 287.427 956.801 292.273 953.604 293.267C925.835 301.246 928.018 315.584 929.584 319.876C930.52 322.441 942.652 322.14 954.961 321.247C954.718 323.864 955.234 326.031 955.704 327.319C957.111 331.174 983.982 329.027 999.632 327.777L999.647 327.776C1001.86 327.599 1003.85 327.44 1005.51 327.319C1013.61 326.727 1011.91 315.227 1010.49 305.577C1009.56 299.266 1008.75 293.746 1010.87 292.585C1015.15 290.237 1025.15 262.907 1029.61 249.535C1034.33 222.14 1050.14 209.747 1057.46 206.975C1159.01 212.062 1202.61 150.064 1211.71 118.429C1166.72 166.86 1108.88 160.5 1087.99 151.694C1067.1 142.889 1038.93 132.192 1029.61 129.68C1026.01 128.709 1020.83 128.563 1014.56 128.386C1003.09 128.063 987.995 127.638 972.307 121.853C952.551 114.569 944.752 88.536 942.044 79.499L942.044 79.4979L942.04 79.4865C941.72 78.4165 941.471 77.5858 941.282 77.0541ZM899.871 154.52C891.844 155.9 886.56 160.692 883.885 164.669C886.162 162.734 888.37 161.077 890.263 159.8C892.463 158.311 895.864 156.338 899.871 154.52ZM984.233 281.978L984.089 281.678C983.05 283.566 982.122 284.851 981.373 285.288C979.383 286.446 980.211 291.838 981.157 298.003L981.157 298.004L981.157 298.005L981.281 298.815C981.311 299.012 981.341 299.211 981.372 299.41C981.42 299.732 981.469 300.056 981.517 300.381C984.914 299.332 990.137 294.421 984.625 282.801C984.495 282.528 984.365 282.254 984.233 281.978ZM610.666 238.527V269.064C610.666 276.298 611.425 281.76 612.704 285.671C614.101 289.186 615.898 291.26 617.679 292.489C619.787 293.555 622.871 294.328 627.476 294.328C632.673 294.328 634.815 293.342 635.639 292.725C637.356 291.421 638.836 289.405 639.611 286.079L639.642 285.946L639.679 285.814C640.831 281.672 641.462 276.663 641.462 270.712V259.178V251.489H650.876H692.834H702.248V259.178V266.428C702.248 286.548 697.019 303.405 685.474 316.148C673.069 329.84 652.634 335.74 627.073 335.74C607.765 335.74 591.45 332.749 579.298 325.775L579.229 325.735L579.161 325.694C567.276 318.611 559.221 308.505 554.7 295.948L554.669 295.864L554.641 295.778C550.595 283.503 548.669 268.838 548.669 251.928V208.43C548.669 191.078 550.729 176.227 555.103 164.08C559.629 151.513 567.713 141.465 579.702 134.584L579.75 134.557L579.798 134.53C592.128 127.639 608.211 124.619 627.073 124.619C647.652 124.619 664.773 128.024 676.419 136.392C687.799 144.378 694.793 155.65 698.044 169.406L698.043 169.406C701.15 182.337 702.651 197.683 702.651 215.35V230.838V238.527H693.237H610.666ZM641.462 204.036V194.59C641.462 186.924 640.937 180.79 639.976 176.082L639.971 176.057L639.967 176.032C639.084 171.529 637.418 169.33 636.018 168.275L635.742 168.066L635.486 167.84C634.797 167.23 632.677 166.03 626.669 166.03C621.185 166.03 618.312 167.036 616.798 168.038C615.544 169.05 613.715 171.577 612.546 177.113L612.541 177.135L612.536 177.158C611.336 182.65 610.666 190.694 610.666 201.51V204.036H641.462ZM352.961 123.494H290.215L247.591 251.088L203.067 123.494H143.309L216.697 326.742H274.836L352.961 123.494ZM71.1992 103.211V328.988H129.177V103.211H197.417V63.9884H0.906921V103.211H71.1992ZM425.082 208.131V323.011V330.527H415.978H371.884H362.779V323.011V62.1158V54.6003H371.884H435.488C457.268 54.6003 475.962 57.0284 491.199 62.2374C506.828 67.363 518.667 75.9288 526.23 87.8633C533.959 99.4367 537.463 114.114 537.463 131.366C537.463 141.985 536.095 151.857 533.275 160.932L533.269 160.955L533.261 160.978C530.372 170.042 525.67 178.02 519.027 184.749L518.974 184.803L518.919 184.857C513.813 189.838 507.565 193.758 500.317 196.66L542.972 320.963L546.253 330.527H534.212H491.679H484.765L482.908 325.031L443.403 208.131H425.082ZM425.082 167.011H432.757C444.595 167.011 453.472 165.776 459.811 163.684C465.513 161.8 469.513 158.719 472.163 154.188C474.952 149.419 476.72 142.017 476.72 131.366C476.72 116.684 473.381 107.945 468.703 103.342L468.658 103.297L468.613 103.251C464.605 99.1795 454.982 95.7208 435.488 95.7208H425.082V167.011ZM784.461 172.914L804.195 129.023L806.334 124.264H811.977H849.824H862.95L857.465 135.134L811.503 226.229L858.184 318.638L863.676 329.512H850.545H813.779H808.411L806.151 325.074L781.573 276.818L760.678 324.679L758.568 329.512H752.863H716.458H703.714L708.725 318.831L754.11 222.085L709.909 135.155L704.371 124.264H717.539H754.305H759.672L761.933 128.701L784.461 172.914Z" fill="black"/>
</svg>
